# xmcd
#
# Track frame offsets: 
#        150
#        17320
#        42394
#        65497
#        86283
#        107625
#        122938
#        140508
#        159605
#
# Disc length: 2342 seconds
#
# Revision: 0
# Processed by: cddbd v1.5.2PL0 Copyright (c) Steve Scherf et al.
# Submitted via: ExactAudioCopy v1.0b3
#
DISCID=70092409
DTITLE=Pacifico Blues - One More Party
DYEAR=2014
DGENRE=Blues
TTITLE0=That's What I Call the Blues
TTITLE1=Taxman
TTITLE2=Let's Wade in the Water (feat. Chantelle Duncan)
TTITLE3=Tunica Motel
TTITLE4=Blues Is My Business (feat. Jocelyn Brown)
TTITLE5=One More Party
TTITLE6=Trouble (feat. Erica Steenkamp)
TTITLE7=T-Bone Shuffle
TTITLE8=I Ain't Got the Blues (I'm Just Complainin')
EXTD=
EXTT0=
EXTT1=
EXTT2=
EXTT3=
EXTT4=
EXTT5=
EXTT6=
EXTT7=
EXTT8=
PLAYORDER=
